<svg xmlns="http://www.w3.org/2000/svg" xmlns:xlink="http://www.w3.org/1999/xlink" width="18" height="18" viewBox="0 0 18 18">
  <title>Funny reaction emoji</title>
  <defs>
    <linearGradient id="a" x1="55.891%" x2="30.312%" y1="32.913%" y2="95.531%">
      <stop offset="0%" stop-color="#FFE600" />
      <stop offset="100%" stop-color="#FFA200" />
    </linearGradient>
    <path id="b"
          d="M11.096 4.397a.66.66 0 0 1 .66.66 5.677 5.677 0 0 1-5.67 5.67A5.69 5.69 0 0 1 1.94 8.926 5.65 5.65 0 0 1 .416 5.058a.66.66 0 0 1 .751-.655c.685.034 9.153.034 9.838 0a.684.684 0 0 1 .09-.006zm.762-2.248a.413.413 0 0 1-.413-.412.912.912 0 0 0-1.822 0 .413.413 0 1 1-.825 0C8.798.779 9.577 0 10.534 0c.958 0 1.737.78 1.737 1.737a.413.413 0 0 1-.413.412zm-8.798 0a.413.413 0 0 1-.413-.412.912.912 0 0 0-1.821 0 .413.413 0 1 1-.826 0C0 .779.78 0 1.737 0c.957 0 1.736.78 1.736 1.737a.413.413 0 0 1-.413.412z" />
  </defs>
  <g fill="none" fill-rule="evenodd">
    <path fill="url(#a)" d="M0 9a9 9 0 1 1 18 0A9 9 0 0 1 0 9" />
    <g transform="rotate(20 -2.408 15.707)">
      <mask id="c" fill="#fff">
        <use xlink:href="#b" />
      </mask>
      <use fill="#3E1509" xlink:href="#b" />
      <ellipse cx="6.6" cy="9.9" fill="#FF006E" mask="url(#c)" rx="4.8" ry="2.1" />
    </g>
  </g>
</svg>
