<svg width="18px" height="18px" viewBox="0 0 18 18" version="1.1" xmlns="http://www.w3.org/2000/svg"
     xmlns:xlink="http://www.w3.org/1999/xlink">
  <title>Helpful reaction icon</title>
  <defs>
    <path
      d="M15.3639686,15.3637771 C18.8786427,11.8491517 18.8786822,6.15077856 15.3640568,2.63610445 C15.3640274,2.63607506 15.363998,2.63604567 15.3639686,2.63601628 C11.8492315,-0.878672092 6.15076847,-0.878672092 2.6360314,2.63601628 C-0.878642699,6.15064168 -0.878682178,11.8490148 2.63594323,15.3636889 C2.63597262,15.3637183 2.63600201,15.3637477 2.6360314,15.3637771 C6.15076847,18.8784655 11.8492315,18.8784655 15.3639686,15.3637771 Z"
      id="path-1"></path>
    <polygon id="path-3"
             points="0.0634306694 0.00757055144 15.0943704 0.00757055144 15.0943704 4.54502756 0.0634306694 4.54502756"></polygon>
    <polygon id="path-5" points="0 0.0797358834 3.38682036 0.0797358834 3.38682036 5.22540984 0 5.22540984"></polygon>
  </defs>
  <g id="Symbols" stroke="none" stroke-width="1" fill="none" fill-rule="evenodd">
    <g id="helpful_18x18">
      <g id="helpful_18">
        <mask id="mask-2" fill="white">
          <use xlink:href="#path-1"></use>
        </mask>
        <use id="Oval-Copy-4" fill="#1E2CFF" xlink:href="#path-1"></use>
      </g>
      <g id="Hand_giving" transform="translate(1.000000, 6.000000)">
        <g id="Group-3" transform="translate(0.904372, 0.089219)">
          <mask id="mask-4" fill="white">
            <use xlink:href="#path-3"></use>
          </mask>
          <g id="Clip-2"></g>
          <path
            d="M15.06655,1.31759677 C14.9531392,0.940302823 14.5537824,0.736318306 14.1858749,0.857276867 L12.07868,1.7436612 C11.8842754,1.80404372 11.6854195,1.84865323 11.4839509,1.87719945 L10.2081768,2.05786316 C10.2007258,2.08969945 10.1925006,2.12163251 10.1822433,2.15317851 C10.0257713,2.63420651 9.57435394,2.94289276 9.09177766,2.94298953 C8.97933459,2.94298953 8.86524647,2.92615209 8.75270663,2.89092896 L6.82027265,2.28574909 C6.72369934,2.2553643 6.65751082,2.15830715 6.67802539,2.05912113 C6.7016365,1.94512978 6.81717612,1.87923156 6.92555499,1.91309995 L8.86834301,2.5215699 C9.26237762,2.64494763 9.68650672,2.42586749 9.81414219,2.03347791 C9.88681409,1.81023679 9.84849442,1.57567395 9.7294712,1.39036544 C9.62960781,1.26427823 9.49703723,1.16189891 9.33766223,1.09822632 L7.56440972,0.401505009 C7.19524419,0.256451503 6.80924123,0.158039617 6.41569046,0.108494991 L5.92392133,0.0466609745 C5.23881204,-0.0394615209 4.53996186,0.0141473133 3.8851406,0.233130692 C3.26699397,0.439727914 2.79922302,0.740092213 2.48376309,0.991589253 L0.0634306694,0.97233265 L0.0634306694,4.50432263 L8.30612762,4.54496471 C8.73519183,4.54709358 9.16280453,4.49512978 9.57899875,4.39033128 L9.58857867,4.38791211 L11.8782758,3.76947518 L11.886501,3.76715278 C12.3150814,3.65122609 12.721986,3.46669171 13.0915386,3.22071038 L14.7648309,2.10711749 C15.0232952,1.93506603 15.1559625,1.61486453 15.06655,1.31759677"
            id="Fill-1" fill="#FFFFFF" mask="url(#mask-4)"></path>
        </g>
        <g id="Group-6" transform="translate(0.000000, 0.185986)">
          <mask id="mask-6" fill="white">
            <use xlink:href="#path-5"></use>
          </mask>
          <g id="Clip-5"></g>
          <path
            d="M2.61268556,5.22540984 L0.774115437,5.22540984 C0.346599499,5.22540984 -1.93533698e-05,4.87879098 -1.93533698e-05,4.45127505 L-1.93533698e-05,0.853870674 C-1.93533698e-05,0.426354736 0.346599499,0.0797358834 0.774115437,0.0797358834 L2.61268556,0.0797358834 C3.0402015,0.0797358834 3.38682036,0.426354736 3.38682036,0.853870674 L3.38682036,4.45127505 C3.38682036,4.87879098 3.0402015,5.22540984 2.61268556,5.22540984"
            id="Fill-4" fill="#00FFFA" mask="url(#mask-6)"></path>
        </g>
      </g>
    </g>
  </g>
</svg>
