<svg width="18px" height="18px" viewBox="0 0 18 18" version="1.1" xmlns="http://www.w3.org/2000/svg">
  <title>Like reaction icon</title>

  <g id="Symbols" stroke="none" stroke-width="1" fill="none" fill-rule="evenodd">
    <g id="Like_18x18">
      <g id="Like" transform="translate(-1.000000, 0.000000)">
        <path
          d="M16.365461,15.3624655 L16.365461,15.3624655 C19.8793537,11.8502264 19.8806942,6.1544213 16.3684551,2.64052864 C16.3674573,2.63953037 16.3664593,2.63853233 16.365461,2.63753452 L16.365461,2.63753452 C12.8494294,-0.876842473 7.1505706,-0.876842473 3.63453899,2.63753452 L3.63453899,2.63753452 C0.120646338,6.14977357 0.119305825,11.8455787 3.63154487,15.3594714 C3.63254268,15.3604696 3.63354072,15.3614677 3.63453899,15.3624655 L3.63453899,15.3624655 C7.1505706,18.8768425 12.8494294,18.8768425 16.365461,15.3624655 Z"
          id="Oval" fill="#4C28FF"></path>
        <path
          d="M15.4,7.30750727 C15.4,5.59128363 14.0358695,4.2 12.3530379,4.2 C11.4053543,4.2 10.5588048,4.64128174 9.99994866,5.33325842 C9.4411952,4.64128174 8.59464573,4.2 7.64696208,4.2 C5.96413055,4.2 4.6,5.59128363 4.6,7.30750727 C4.6,8.16588089 4.94128932,8.94299332 5.49295826,9.50532909 L9.17701427,14.0388864 C9.31182561,14.2048644 9.48606387,14.3184835 9.67447118,14.3794294 C9.68124768,14.3816285 9.68781884,14.3844558 9.69449267,14.3865502 C9.71410345,14.3923097 9.73391959,14.3966031 9.75373573,14.4013154 C9.7678021,14.4046664 9.78176581,14.4088551 9.79603753,14.4116825 C9.81071996,14.4146146 9.82560773,14.4160807 9.84039282,14.4182798 C9.85959292,14.4213166 9.87869033,14.4247723 9.8979931,14.4265525 C9.91288087,14.4281233 9.92797399,14.4281233 9.94306711,14.4288563 C9.96206185,14.4299035 9.98095392,14.4315789 9.99994866,14.4315789 C10.0188407,14.4315789 10.0376301,14.4299035 10.0564195,14.428961 C10.0716153,14.4281233 10.0869138,14.4281233 10.1021096,14.4265525 C10.121207,14.4247723 10.1402017,14.4213166 10.1592992,14.4182798 C10.1741869,14.4160807 10.1891774,14.4146146 10.2040651,14.4116825 C10.2181315,14.4088551 10.2320952,14.4047711 10.2460589,14.4014202 C10.2659777,14.3966031 10.2858965,14.3923097 10.3055073,14.3864455 C10.3120785,14.3844558 10.318547,14.3817332 10.3251181,14.3795341 C10.5137308,14.3186929 10.6880717,14.2049692 10.8229857,14.0388864 L14.5070417,9.50532909 C15.0588134,8.94299332 15.4,8.16588089 15.4,7.30750727"
          id="Fill-1" fill="#FFFFFF"></path>
      </g>
    </g>
  </g>
</svg>
