<svg xmlns="http://www.w3.org/2000/svg" xmlns:xlink="http://www.w3.org/1999/xlink" width="18px" height="18px" viewBox="0 0 18 18"
     version="1.1" class="mdl-js">
  <title>Smart reaction icon</title>
  <defs>
    <path
      d="M15.3642181,15.3607137 L15.3642181,15.3607137 C18.8781107,11.8477887 18.8788952,6.15142751 15.3659702,2.63753486 C15.3653862,2.63695074 15.3648022,2.6363667 15.3642181,2.63578275 L15.3642181,2.63578275 C11.849074,-0.878393334 6.15092602,-0.878393334 2.63578193,2.63578275 L2.63578193,2.63578275 C-0.878110726,6.14870774 -0.878895172,11.8450689 2.63402982,15.3589616 C2.63461378,15.3595457 2.63519781,15.3601297 2.63578193,15.3607137 L2.63578193,15.3607137 C6.15092602,18.8748898 11.849074,18.8748898 15.3642181,15.3607137 Z"
      id="path-1" />
    <linearGradient x1="50%" y1="100%" x2="50%" y2="0%" id="linearGradient-3">
      <stop stop-color="#929FF5" offset="0%" />
      <stop stop-color="#C7CAD4" offset="100%" />
    </linearGradient>
  </defs>
  <g id="Symbols" stroke="none" stroke-width="1" fill="none" fill-rule="evenodd">
    <g id="Smart_18x18">
      <g id="Smart">
        <mask id="mask-2" fill="white">
          <use xlink:href="#path-1" />
        </mask>
        <use id="Oval-Copy" fill="#7B1EFF" xlink:href="#path-1" />
        <g id="Group" mask="url(#mask-2)" fill-rule="nonzero">
          <g transform="translate(3.000000, 1.000000)">
            <path
              d="M4,13 L4,14.332 C4,14.8 4.39189189,15.196 4.89189189,15.28 C5,15.7 5.43243243,16 5.93243243,16 L6.06756757,16 C6.56756757,16 6.98648649,15.688 7.10810811,15.28 C7.62162162,15.196 8,14.812 8,14.332 L8,13 L4,13 Z"
              id="Shape" fill="url(#linearGradient-3)" />
            <path
              d="M8.52307692,12 C10.0461538,11.1371901 11,9.57520661 11,7.83471074 C11,5.17190083 8.75384615,3 6,3 C3.24615385,3 1,5.17190083 1,7.83471074 C1,9.56033058 1.95384615,11.1371901 3.47692308,12 L8.52307692,12 Z"
              id="Shape" fill="#FFFFFF" />
            <path
              d="M5.23076923,0.6 C5.23076923,0.26862915 5.50628631,0 5.84615385,0 C6.18602138,0 6.46153846,0.26862915 6.46153846,0.6 L6.46153846,2.12970585 C6.46153846,2.4610767 6.18602138,2.72970585 5.84615385,2.72970585 C5.50628631,2.72970585 5.23076923,2.4610767 5.23076923,2.12970585 L5.23076923,0.6 Z M0.180241981,3.45396992 C-0.0600806603,3.21965535 -0.0600806603,2.83975636 0.180241981,2.60544179 C0.420564622,2.37112721 0.810204609,2.37112721 1.05052725,2.60544179 L1.97360417,3.50544179 C2.21392681,3.73975636 2.21392681,4.11965535 1.97360417,4.35396992 C1.73328153,4.5882845 1.34364154,4.5882845 1.1033189,4.35396992 L0.180241981,3.45396992 Z M11.819758,3.45396992 L10.8966811,4.35396992 C10.6563585,4.5882845 10.2667185,4.5882845 10.0263958,4.35396992 C9.78607319,4.11965535 9.78607319,3.73975636 10.0263958,3.50544179 L10.9494728,2.60544179 C11.1897954,2.37112721 11.5794354,2.37112721 11.819758,2.60544179 C12.0600807,2.83975636 12.0600807,3.21965535 11.819758,3.45396992 Z"
              id="Combined-Shape" fill="#FFF949" />
          </g>
        </g>
      </g>
    </g>
  </g>
</svg>
