<svg xmlns="http://www.w3.org/2000/svg" xmlns:xlink="http://www.w3.org/1999/xlink" width="18px" height="18px" viewBox="0 0 18 18"
     version="1.1" class="mdl-js">
  <title>Uplifting reaction icon</title>
  <defs>
    <path
      d="M15.3672187,15.3607137 C18.8811114,11.8484747 18.8824519,6.15266952 15.3702128,2.63877687 C15.369215,2.63777859 15.368217,2.63678055 15.3672187,2.63578275 C11.8511871,-0.878594249 6.15232831,-0.878594249 2.6362967,2.63578275 C-0.877595956,6.14802179 -0.878936469,11.8438269 2.63330258,15.3577196 C2.63430038,15.3587179 2.63529842,15.3597159 2.6362967,15.3607137 C6.15232831,18.8750907 11.8511871,18.8750907 15.3672187,15.3607137 Z"
      id="path-1" />
    <linearGradient x1="50%" y1="8.41074781%" x2="50%" y2="92.6225647%" id="linearGradient-3">
      <stop stop-color="#003FFD" offset="0%" />
      <stop stop-color="#06E7F6" offset="100%" />
    </linearGradient>
  </defs>
  <g id="Symbols" stroke="none" stroke-width="1" fill="none" fill-rule="evenodd">
    <g id="uplifting_18x18">
      <g id="uplifting">
        <mask id="mask-2" fill="white">
          <use xlink:href="#path-1" />
        </mask>
        <use id="Oval-Copy-2" fill="#FF00FE" xlink:href="#path-1" />
        <rect id="tail" fill="url(#linearGradient-3)" mask="url(#mask-2)"
              transform="translate(5.897413, 11.697413) rotate(45.000000) translate(-5.897413, -11.697413) " x="-0.102586591" y="5.39741341"
              width="12" height="12.6" />
        <path
          d="M12.4568756,7.89112561 C12.3978964,8.06495779 12.4282914,8.25650946 12.537972,8.40369772 L14.4881647,11.0170007 C14.7646943,11.3872994 14.4963132,11.9138402 14.0343097,11.9080199 L10.7737705,11.8662433 C10.5902367,11.8639152 10.4173087,11.9519953 10.311379,12.1018997 L8.42857253,14.7642223 C8.16174352,15.1415054 7.57816017,15.0490277 7.44093013,14.6078509 L6.47294746,11.4938751 C6.4184952,11.3186202 6.28126516,11.1813911 6.10613842,11.1270685 L2.99227113,10.1590923 C2.55096209,10.0219925 2.45848379,9.43828372 2.83576939,9.17132717 L5.49810976,7.2886626 C5.64801514,7.18260428 5.73609587,7.00980682 5.73376775,6.82640352 L5.69212018,3.5657568 C5.68617053,3.10362706 6.21258547,2.83537711 6.58301604,3.11177544 L9.19633644,5.06208452 C9.34339634,5.17176435 9.53507864,5.20215911 9.70891198,5.14318034 L12.7970406,4.09591907 C13.2345987,3.94756676 13.6523678,4.36533308 13.5040145,4.80301767 L12.4568756,7.89112561 Z"
          id="Fill-1" fill="#FFFFFF" mask="url(#mask-2)" />
      </g>
    </g>
  </g>
</svg>
